# xmcd
#
# Track frame offsets:
#	150
#	15958
#	25134
#	35254
#	47874
#	61517
#	73562
#	85145
#	96950
#	109940
#	123219
#	135458
#	146727
#	157733
#	172518
#	184681
#
# Disc length: 2666 seconds
#
# Revision: 1
# Processed by: cddbd v1.5.1PL2 Copyright (c) Steve Scherf et al.
# Submitted via: audiograbber 1.83.01
#
DISCID=bb0a6810
DTITLE=Verschiedene - The Country Club Collection
DYEAR=2006
DGENRE=Country
TTITLE0=Johnny Lee - Lookin For Love
TTITLE1=Bob Luman - Let's Think About Living
TTITLE2=Bobby Bare - Help Me Make It Through The Night
TTITLE3=Dickey Lee - Never Ending Song Of Love
TTITLE4=Johnny Carver - Tie A Yellow Ribbon Round The Ole Oak Tree
TTITLE5=Freddy Fender - Coming Home
TTITLE6=Moe Bandy - Oklahoma Hills
TTITLE7=David Houston - Already It's Heaven
TTITLE8=Jim Ed Brown - You Can Have Her
TTITLE9=Lee Greenwood - Hearts Aren't Make To The Break
TTITLE10=George Jones - Take Me
TTITLE11=Ray Price - My Shoes Keep Walking Back to You
TTITLE12=Jimmy Dean - Little Black Book
TTITLE13=Roy Clark - Yesterday When I Was Young
TTITLE14=Skeeter Davis - What Does It Take
TTITLE15=Red Simpson - I'm A Truck
EXTD=
EXTT0=
EXTT1=
EXTT2=
EXTT3=
EXTT4=
EXTT5=
EXTT6=
EXTT7=
EXTT8=
EXTT9=
EXTT10=
EXTT11=
EXTT12=
EXTT13=
EXTT14=
EXTT15=
PLAYORDER=
